<!DOCTYPE svg PUBLIC "-//W3C//DTD SVG 1.1//EN" "http://www.w3.org/Graphics/SVG/1.1/DTD/svg11.dtd">
<!-- Uploaded to: SVG Repo, www.svgrepo.com, Transformed by: SVG Repo Mixer Tools -->
<svg version="1.1" id="Layer_1" xmlns="http://www.w3.org/2000/svg" xmlns:xlink="http://www.w3.org/1999/xlink" width="64px" height="64px" viewBox="-3.84 -3.84 39.68 39.68" enable-background="new 0 0 32 32" xml:space="preserve" fill="#ffffff" stroke="#ffffff" stroke-width="0.00032" transform="matrix(1, 0, 0, 1, 0, 0)rotate(0)">
<g id="SVGRepo_bgCarrier" stroke-width="0" transform="translate(0,0), scale(1)">
<path transform="translate(-3.84, -3.84), scale(1.24)" d="M16,24.494043442567712C18.195346724694403,23.95897290952312,20.102729270392604,23.20149533764742,22.042414845117385,22.042414845117385C25.06560879563054,20.23587198124534,29.7796589734443,19.494881135073875,30.21452059871272,16C30.64639092464145,12.529159237826807,26.767463365460745,10.025474751616297,23.759798889025557,8.240201110974443C21.43872355789872,6.862469439416395,18.662815233739252,8.004151466823046,16,7.562619721026797C12.202458146397063,6.932934543057811,8.140243308830627,2.7246697619349622,5.15532016795528,5.155320167955276C2.2384351843771175,7.530566475828265,5.474480009809477,12.241931828728688,5.638603897667245,15.999999999999998C5.78898006425899,19.443276251632316,3.3975073088581986,23.752051617646394,6.062910102244805,25.937089897755193C8.753818766208612,28.14303732664892,12.619422212000243,25.317989627777035,16,24.494043442567712" fill="#D4AF37" strokewidth="0"/>
</g>
<g id="SVGRepo_tracerCarrier" stroke-linecap="round" stroke-linejoin="round" stroke="#CCCCCC" stroke-width="0.32"/>
<g id="SVGRepo_iconCarrier"> <g> <path fill="#E0E0E0" d="M30.5,0h-29C0.673,0,0,0.673,0,1.5v8C0,10.327,0.673,11,1.5,11h29c0.827,0,1.5-0.673,1.5-1.5v-8 C32,0.673,31.327,0,30.5,0z M31,9.5c0,0.275-0.225,0.5-0.5,0.5h-29C1.225,10,1,9.775,1,9.5v-8C1,1.225,1.225,1,1.5,1h29 C30.775,1,31,1.225,31,1.5V9.5z"/> <path fill="#E0E0E0" d="M31.5,12.5c-0.276,0-0.5,0.224-0.5,0.5v17.5c0,0.275-0.225,0.5-0.5,0.5h-29C1.225,31,1,30.775,1,30.5V13 c0-0.276-0.224-0.5-0.5-0.5S0,12.724,0,13v17.5C0,31.327,0.673,32,1.5,32h29c0.827,0,1.5-0.673,1.5-1.5V13 C32,12.724,31.776,12.5,31.5,12.5z"/> <path fill="#E0E0E0" d="M13.5,27c0.827,0,1.5-0.673,1.5-1.5v-8c0-0.827-0.673-1.5-1.5-1.5h-8C4.673,16,4,16.673,4,17.5v8 C4,26.327,4.673,27,5.5,27H13.5z M5,25.5v-8C5,17.225,5.225,17,5.5,17h8c0.275,0,0.5,0.225,0.5,0.5v8c0,0.275-0.225,0.5-0.5,0.5h-8 C5.225,26,5,25.775,5,25.5z"/> <path fill="#E0E0E0" d="M18,18h9c0.276,0,0.5-0.224,0.5-0.5S27.276,17,27,17h-9c-0.276,0-0.5,0.224-0.5,0.5S17.724,18,18,18z"/> <path fill="#E0E0E0" d="M18,22h9c0.276,0,0.5-0.224,0.5-0.5S27.276,21,27,21h-9c-0.276,0-0.5,0.224-0.5,0.5S17.724,22,18,22z"/> <path fill="#E0E0E0" d="M18,26h9c0.276,0,0.5-0.224,0.5-0.5S27.276,25,27,25h-9c-0.276,0-0.5,0.224-0.5,0.5S17.724,26,18,26z"/> </g> </g>
</svg>